<svg width="0" height="0" class="hidden">
	<!-- Иконка доставки-->
	<symbol fill="none" xmlns="http://www.w3.org/2000/svg" viewBox="0 0 17 17" id="delivery">
		<path d="M11.694 5.312l-4.77 4.82L1.5 6.74c-.778-.487-.616-1.667.263-1.924l12.88-3.772c.805-.236 1.55.517 1.312 1.324l-3.81
		12.871c-.262.88-1.436 1.038-1.917.257l-3.306-5.363"  stroke-width="1.5" stroke-linecap="round" stroke-linejoin="round">
		</path>
	</symbol>

	<!--Корзина-->
	<symbol xmlns="http://www.w3.org/2000/svg" viewBox="0 0 20 20" id="cart">
		<path fill-rule="evenodd" clip-rule="evenodd" d="M3.93799 5.47311L4.54099 12.8136C4.58499 13.3786 5.03599 13.8023 5.587 13.8023H5.59099H16.502H16.504C17.025 13.8023 17.47 13.4052 17.544 12.8781L18.494 6.16499C18.516 6.00533 18.477 5.84566 18.382 5.7167C18.288 5.58672 18.15 5.50279 17.994 5.48027C17.785 5.48846 9.11201 5.47618 3.93799 5.47311V5.47311ZM5.58497 15.3376C4.26796 15.3376 3.15296 14.2854 3.04596 12.9395L2.12995 1.78957L0.622948 1.52346C0.213946 1.44977 -0.0590552 1.05367 0.0109451 0.635065C0.0829454 0.216456 0.477947 -0.0557937 0.877949 0.00970993L2.95796 0.378168C3.29296 0.438554 3.54796 0.723085 3.57696 1.07107L3.81196 3.93788C18.088 3.94402 18.134 3.95119 18.203 3.95937C18.76 4.04228 19.25 4.34011 19.584 4.79864C19.918 5.25614 20.058 5.82009 19.978 6.38505L19.029 13.0971C18.85 14.3744 17.766 15.3376 16.506 15.3376H16.501H5.59297H5.58497Z"/>
		<path fill-rule="evenodd" clip-rule="evenodd" d="M14.8979 9.25625H12.1259C11.7109 9.25625 11.3759 8.91236 11.3759 8.48863C11.3759 8.0649 11.7109 7.72101 12.1259 7.72101H14.8979C15.3119 7.72101 15.6479 8.0649 15.6479 8.48863C15.6479 8.91236 15.3119 9.25625 14.8979 9.25625"/>
		<path fill-rule="evenodd" clip-rule="evenodd" d="M5.15374 18.4648C5.04074 18.4648 4.94874 18.5589 4.94874 18.6746C4.94874 18.9069 5.35974 18.9069 5.35974 18.6746C5.35974 18.5589 5.26674 18.4648 5.15374 18.4648M5.15375 20C4.43974 20 3.85974 19.4053 3.85974 18.6746C3.85974 17.9438 4.43974 17.3502 5.15375 17.3502C5.86775 17.3502 6.44875 17.9438 6.44875 18.6746C6.44875 19.4053 5.86775 20 5.15375 20"/>
		<path fill-rule="evenodd" clip-rule="evenodd" d="M16.4341 18.4648C16.3221 18.4648 16.2301 18.559 16.2301 18.6746C16.2311 18.909 16.6411 18.9069 16.6401 18.6746C16.6401 18.559 16.5471 18.4648 16.4341 18.4648M16.4341 20C15.7201 20 15.1401 19.4053 15.1401 18.6746C15.1401 17.9438 15.7201 17.3502 16.4341 17.3502C17.1491 17.3502 17.7301 17.9438 17.7301 18.6746C17.7301 19.4053 17.1491 20 16.4341 20"/>
	</symbol>

	<!--Поиск иконка -->
	<symbol fill="none" width="20" height="20" viewBox="0 0 20 20" xmlns="http://www.w3.org/2000/svg" id="search">
		<circle cx="9.80549" cy="9.8055" r="7.49047" stroke-width="1.5" stroke-linecap="round" stroke-linejoin="round"/>
		<path d="M15.0153 15.4043L17.9519 18.3333" stroke-width="1.5" stroke-linecap="round" stroke-linejoin="round"/>
	</symbol>

	<!-- Человек -->

	<symbol width="20" height="20" viewBox="0 0 20 20" fill="none" id="person" xmlns="http://www.w3.org/2000/svg">
		<mask id="mask0" mask-type="alpha" maskUnits="userSpaceOnUse" x="3" y="12" width="14" height="7">
			<path fill-rule="evenodd" clip-rule="evenodd" d="M3.33325 12.0801H16.5332V18.2251H3.33325V12.0801Z" fill="white"/>
		</mask>
		<g mask="url(#mask0)">
			<path fill-rule="evenodd" clip-rule="evenodd" d="M9.93408 13.3301C6.38325 13.3301 4.58325 13.9401 4.58325 15.1442C4.58325 16.3592 6.38325 16.9751 9.93408 16.9751C13.4841 16.9751 15.2833 16.3651 15.2833 15.1609C15.2833 13.9459 13.4841 13.3301 9.93408 13.3301ZM9.93409 18.2251C8.30159 18.2251 3.33325 18.2251 3.33325 15.1442C3.33325 12.3976 7.10075 12.0801 9.93409 12.0801C11.5666 12.0801 16.5333 12.0801 16.5333 15.1609C16.5333 17.9076 12.7666 18.2251 9.93409 18.2251Z" fill="#474747"/>
		</g>
		<mask id="mask1" mask-type="alpha" maskUnits="userSpaceOnUse" x="5" y="1" width="10" height="10">
			<path fill-rule="evenodd" clip-rule="evenodd" d="M5.50806 1.66675H14.3581V10.5156H5.50806V1.66675Z" fill="white"/>
		</mask>
		<g mask="url(#mask1)">
			<path fill-rule="evenodd" clip-rule="evenodd" d="M9.93388 2.85642C8.14971 2.85642 6.69805 4.30725 6.69805 6.09142C6.69221 7.86975 8.13305 9.31975 9.90971 9.32642L9.93388 9.92142V9.32642C11.7172 9.32642 13.168 7.87475 13.168 6.09142C13.168 4.30725 11.7172 2.85642 9.93388 2.85642ZM9.93392 10.5156H9.90725C7.47225 10.5081 5.49975 8.52225 5.50808 6.08891C5.50808 3.65141 7.49308 1.66641 9.93392 1.66641C12.3739 1.66641 14.3581 3.65141 14.3581 6.09141C14.3581 8.53141 12.3739 10.5156 9.93392 10.5156Z" fill="#474747"/>
		</g>
	</symbol>

	<!--След слайд-->
	<symbol width="40" height="40" viewBox="0 0 40 40" xmlns="http://www.w3.org/2000/svg" id="prev">
		<path d="M23.9077 13.1839C24.1614 13.4326 24.1845 13.8217 23.9769 14.0959L23.9077 14.1745L18.1822 19.7872L23.9077 25.4C24.1614 25.6487 24.1845 26.0378 23.9769 26.312L23.9077 26.3906C23.6541 26.6393 23.2571 26.6619 22.9774 26.4584L22.8973 26.3906L16.6667 20.2825C16.413 20.0339 16.39 19.6447 16.5975 19.3705L16.6667 19.2919L22.8973 13.1839C23.1763 12.9103 23.6287 12.9103 23.9077 13.1839Z"/>
	</symbol>

	<!--Пред слайд-->
	<symbol width="40" height="40" viewBox="0 0 40 40" xmlns="http://www.w3.org/2000/svg" id="next">
		<path d="M17.0923 26.8161C16.8386 26.5674 16.8155 26.1783 17.0231 25.9041L17.0923 25.8255L22.8178 20.2128L17.0923 14.6C16.8386 14.3513 16.8155 13.9622 17.0231 13.688L17.0923 13.6094C17.3459 13.3607 17.7429 13.3381 18.0226 13.5416L18.1027 13.6094L24.3333 19.7175C24.587 19.9661 24.61 20.3553 24.4025 20.6295L24.3333 20.7081L18.1027 26.8161C17.8237 27.0897 17.3713 27.0897 17.0923 26.8161Z"/>
	</symbol>

	<!--	fb-->
	<symbol xmlns="http://www.w3.org/2000/svg" viewBox="0 0 37 37" id="facebook">
		<g clip-path="url(#clip0)">
			<path d="M36.217 18.109C36.217 8.106 28.111 0 18.11 0 8.106 0 0 8.106 0 18.109 0 28.11 8.106 36.217 18.109 36.217c.106 0 .212 0 .318-.007V22.12h-3.89v-4.535h3.89v-3.339c0-3.869 2.363-5.977 5.814-5.977 1.656 0 3.078.12 3.488.177v4.046h-2.377c-1.875 0-2.242.891-2.242 2.2v2.886h4.49l-.587 4.534H23.11v13.405c7.569-2.172 13.107-9.14 13.107-17.408z"></path>
		</g>
		<defs>
			<clipPath id="clip0">
				<path fill="#fff" d="M0 0h36.217v36.217H0z"></path>
			</clipPath>
		</defs>
	</symbol>

	<!--	vk-->
	<symbol xmlns="http://www.w3.org/2000/svg" viewBox="0 0 37 37" id="vkontakte">
		<g clip-path="url(#clip0)">
			<path d="M18.543 35.736c9.762 0 17.675-8 17.675-17.868C36.218 8 28.305 0 18.543 0S.867 8 .867 17.868c0 9.868 7.914 17.868 17.676 17.868z" ></path>
			<path d="M27.091 22.753c-.706-1.324-2.524-2.916-3.274-3.608a.524.524 0 01-.041-.727c1.433-1.605 2.578-3.449 2.973-4.563.174-.492-.187-1.012-.694-1.012h-1.474c-.486 0-.77.182-.906.471-1.19 2.543-2.212 3.644-2.927 4.287-.4.36-1.024.062-1.024-.486v-3.39c0-.47-.369-.85-.823-.85l-2.693-.032c-.339 0-.532.4-.33.68l.446.666c.167.23.257.51.257.799l-.002 2.996a.563.563 0 01-.966.41c-1.217-1.235-2.273-3.758-2.654-4.965a.824.824 0 00-.78-.586l-1.452-.004c-.544 0-.943.539-.795 1.08 1.327 4.856 4.05 9.475 8.902 9.975.477.05.89-.352.89-.848V21.47c0-.452.34-.84.776-.852h.046c1.284 0 2.72 1.947 3.224 2.858a.808.808 0 00.707.421h1.953c.57 0 .936-.63.661-1.145z" fill="#fff"></path>
		</g>
		<defs>
			<clipPath id="clip0">
				<path fill="#fff" transform="translate(.446)" d="M0 0h36.217v36.217H0z"></path>
			</clipPath>
		</defs>
	</symbol>

	<!--	inst-->
	<symbol xmlns="http://www.w3.org/2000/svg" viewBox="0 0 38 37" id="instagram">
		<g clip-path="url(#clip0)">
			<path d="M18.969 35.725c9.983 0 18.077-7.914 18.077-17.676 0-9.762-8.093-17.675-18.077-17.675C8.985.374.89 8.287.89 18.049s8.095 17.676 18.08 17.676z"></path>
			<path d="M15.152 10.021c-2.426 0-4.394 1.924-4.394 4.297v6.873c0 2.373 1.968 4.297 4.394 4.297h7.03c2.427 0 4.394-1.924 4.394-4.297v-6.873c0-2.373-1.968-4.296-4.394-4.296h-7.03zm8.788 1.719a.87.87 0 01.878.86.87.87 0 01-.878.858.87.87 0 01-.879-.859.87.87 0 01.879-.86zm-5.273 1.718c2.426 0 4.394 1.924 4.394 4.296 0 2.373-1.968 4.297-4.394 4.297s-4.394-1.924-4.394-4.296c0-2.373 1.968-4.297 4.394-4.297zm0 1.719c-.699 0-1.37.271-1.864.755a2.549 2.549 0 00-.772 1.822c0 .684.278 1.34.772 1.823a2.667 2.667 0 001.864.755c.7 0 1.37-.271 1.864-.755a2.547 2.547 0 00.773-1.823c0-.683-.278-1.339-.773-1.822a2.667 2.667 0 00-1.864-.755z" fill="#fff"></path>
		</g>
		<defs>
			<clipPath id="clip0">
				<path fill="#fff" transform="translate(.891)" d="M0 0h36.217v36.217H0z"></path>
			</clipPath>
		</defs>
	</symbol>

	<!--	YouTube-->
	<symbol xmlns="http://www.w3.org/2000/svg" viewBox="0 0 37 37" id="youtube">
		<circle cx="18.446" cy="18.109" r="18.109"></circle>
		<g clip-path="url(#clip0)">
			<path d="M27.98 13.305a2.476 2.476 0 00-1.742-1.742c-1.546-.424-7.733-.424-7.733-.424s-6.187 0-7.734.408a2.527 2.527 0 00-1.742 1.758c-.407 1.546-.407 4.754-.407 4.754s0 3.224.407 4.754a2.477 2.477 0 001.742 1.742c1.563.424 7.734.424 7.734.424s6.187 0 7.733-.408a2.476 2.476 0 001.743-1.742c.407-1.546.407-4.754.407-4.754s.016-3.223-.408-4.77z" fill="#fff"></path>
			<path d="M16.535 21.022l5.145-2.963-5.145-2.963v5.926z"></path>
		</g>
		<defs>
			<clipPath id="clip0">
				<path fill="#fff" transform="translate(8.622 8.167)" d="M0 0h19.766v19.766H0z"></path>
			</clipPath>
		</defs>
	</symbol>

	<!--	Стрелка из хлебных крошек-->
	<symbol viewBox="0 0 11 11" xmlns="http://www.w3.org/2000/svg" id="breadcrumb-arrow">
		<path d="M3.5502 9.05619C3.41359 8.92226 3.40117 8.71269 3.51295 8.56501L3.5502 8.52271L6.63365 5.50001L3.5502 2.47731C3.41359 2.34339 3.40117 2.13382 3.51295 1.98614L3.5502 1.94383C3.68681 1.80991 3.90059 1.79773 4.05123 1.90731L4.09439 1.94383L7.4498 5.23327C7.58641 5.36719 7.59883 5.57676 7.48705 5.72444L7.4498 5.76675L4.09439 9.05619C3.94411 9.20351 3.70048 9.20351 3.5502 9.05619Z" fill="black"/>
	</symbol>

	<!--	Звезда рейтинга-->
	<symbol viewBox="0 0 12 11" xmlns="http://www.w3.org/2000/svg" id="star">
		<path d="M6 0L7.34708 4.1459H11.7063L8.17963 6.7082L9.52671 10.8541L6 8.2918L2.47329 10.8541L3.82037 6.7082L0.293661 4.1459H4.65292L6 0Z" fill="#FFCA00"/>
	</symbol>

<!--	Инфо иконка-->
	<symbol xmlns="http://www.w3.org/2000/svg" viewBox="0 0 20 20" id="info-icon">
		<path fill-rule="evenodd" clip-rule="evenodd" d="M10 17.083A7.091 7.091 0 0017.083 10 7.091 7.091 0 0010 2.917 7.091 7.091 0 002.917 10 7.091 7.091 0 0010 17.083zm0-15.416c4.595 0 8.333 3.738 8.333 8.333 0 4.595-3.738 8.333-8.333 8.333-4.595 0-8.333-3.738-8.333-8.333 0-4.595 3.738-8.333 8.333-8.333z"></path>
		<path fill-rule="evenodd" clip-rule="evenodd" d="M10.005 8.856c.345 0 .625.28.625.625v3.682a.625.625 0 01-1.25 0V9.481c0-.345.28-.625.625-.625zm-.008-2.853c.46 0 .837.373.837.834a.83.83 0 01-.829.833h-.008a.833.833 0 110-1.667z"></path>
	</symbol>

<!--	Минус-->
	<symbol viewBox="0 0 15 2" xmlns="http://www.w3.org/2000/svg" id="minus">
		<rect x="15" y="0.5" width="1" height="15" rx="0.5" transform="rotate(90 15 0.5)" fill="#0BA360"/>
	</symbol>

<!--	Плюс-->
	<symbol viewBox="0 0 15 16" xmlns="http://www.w3.org/2000/svg" id="plus">
		<rect x="7" y="0.5" width="1" height="15" rx="0.5" fill="#0BA360"/>
		<rect x="15" y="7.5" width="1" height="15" rx="0.5" transform="rotate(90 15 7.5)" fill="#0BA360"/>
	</symbol>

<!--	Удалить кнопка-->
	<symbol xmlns="http://www.w3.org/2000/svg" viewBox="0 0 19 19" id="delete">
		<path fill-rule="evenodd" clip-rule="evenodd" d="M9.695 17.417c-1.072 0-2.118-.012-3.153-.034-1.324-.026-2.24-.884-2.39-2.24-.249-2.248-.675-7.547-.68-7.6a.593.593 0 01.545-.64c.322-.008.613.218.64.544.003.054.43 5.335.676 7.566.085.77.5 1.168 1.234 1.183 1.979.042 3.998.044 6.175.005.78-.015 1.2-.405 1.288-1.193.245-2.212.673-7.507.677-7.56.026-.327.315-.555.64-.545.326.027.57.313.544.64-.005.054-.434 5.367-.681 7.595-.154 1.383-1.067 2.225-2.446 2.25-1.056.018-2.074.029-3.069.029zm6.699-11.884H2.969a.594.594 0 010-1.187h13.425a.594.594 0 010 1.187z" fill="#474747"></path>
		<path fill-rule="evenodd" clip-rule="evenodd" d="M13.807 5.533a1.904 1.904 0 01-1.86-1.525l-.193-.963c-.04-.146-.207-.274-.397-.274H8.006a.419.419 0 00-.406.31l-.184.927a1.903 1.903 0 01-1.86 1.525.594.594 0 010-1.187c.337 0 .63-.241.696-.572l.192-.963c.196-.737.835-1.227 1.562-1.227h3.35c.728 0 1.366.49 1.554 1.192l.201.998a.713.713 0 00.696.572.594.594 0 010 1.187z" fill="#474747"></path>
	</symbol>

	<symbol id="minus-big-cart" width="10" height="2" viewBox="0 0 10 2" fill="none" xmlns="http://www.w3.org/2000/svg">
		<path d="M1 0C0.447715 0 0 0.447715 0 1C0 1.55228 0.447715 2 1 2V0ZM9 2C9.55229 2 10 1.55228 10 1C10 0.447715 9.55229 0 9 0V2ZM1 2H9V0H1V2Z" fill="#272526"/>
	</symbol>

	<symbol id="plus-big-cart" width="10" height="10" viewBox="0 0 10 10" fill="none" xmlns="http://www.w3.org/2000/svg">
		<path d="M6 1C6 0.447715 5.55228 2.71588e-08 5 0C4.44772 -2.71588e-08 4 0.447715 4 1L6 1ZM4 9C4 9.55228 4.44771 10 5 10C5.55228 10 6 9.55228 6 9L4 9ZM4 1L4 9L6 9L6 1L4 1Z" fill="#14142B"/>
		<path d="M1 4C0.447715 4 0 4.44772 0 5C0 5.55228 0.447715 6 1 6V4ZM9 6C9.55229 6 10 5.55228 10 5C10 4.44772 9.55229 4 9 4V6ZM1 6H9V4H1V6Z" fill="#14142B"/>
	</symbol>

</svg>
