<svg width="20" height="20" viewBox="0 0 20 20" fill="none" xmlns="http://www.w3.org/2000/svg">
<path d="M10.0742 10L9.99124 18.0321" stroke="#0BA360" stroke-width="2" stroke-linecap="round" stroke-linejoin="round"/>
<path d="M17.1787 13.6978V6.30213C17.1787 6.19145 17.1494 6.08276 17.0936 5.98716C17.0378 5.89156 16.9576 5.81249 16.8613 5.75803L10.2988 2.04879C10.205 1.99576 10.099 1.9679 9.99124 1.9679C9.88347 1.9679 9.77753 1.99576 9.68371 2.04879L3.12121 5.75803C3.02485 5.81249 2.94469 5.89156 2.88891 5.98716C2.83313 6.08276 2.80374 6.19145 2.80374 6.30213V13.6978C2.80374 13.8085 2.83313 13.9172 2.88891 14.0128C2.94469 14.1084 3.02485 14.1874 3.12121 14.2419L9.68371 17.9511C9.77753 18.0042 9.88347 18.032 9.99124 18.032C10.099 18.032 10.205 18.0042 10.2988 17.9511L16.8613 14.2419C16.9576 14.1874 17.0378 14.1084 17.0936 14.0128C17.1494 13.9172 17.1787 13.8085 17.1787 13.6978V13.6978Z" stroke="#0BA360" stroke-width="2" stroke-linecap="round" stroke-linejoin="round"/>
<path d="M17.0931 5.98646L10.0741 9.99997L2.88983 5.9856" stroke="#0BA360" stroke-width="2" stroke-linecap="round" stroke-linejoin="round"/>
<path d="M13.8299 11.6024V7.8524L6.58151 3.80225" stroke="#0BA360" stroke-width="2" stroke-linecap="round" stroke-linejoin="round"/>
</svg>
